REM MD5 439c5b391879634a27b9f468cc35ec0b
FILE "Intellivision Classic Games (USA).bin" BINARY
  TRACK 01 MODE2/2352
    INDEX 01 00:00:00
  TRACK 02 AUDIO
    INDEX 00 30:35:12
    INDEX 01 30:37:12
  TRACK 03 AUDIO
    INDEX 00 31:05:25
    INDEX 01 31:07:25
REM LEADOUT 34:10:25
